<?xml version="1.0" standalone="no"?>
<!DOCTYPE svg PUBLIC "-//W3C//DTD SVG 20010904//EN"
 "http://www.w3.org/TR/2001/REC-SVG-20010904/DTD/svg10.dtd">
<svg version="1.0" xmlns="http://www.w3.org/2000/svg"
 width="500.000000pt" height="500.000000pt" viewBox="0 0 500.000000 500.000000"
 preserveAspectRatio="xMidYMid meet">

<g transform="translate(0.000000,500.000000) scale(0.100000,-0.100000)"
fill="#000000" stroke="none">
<path d="M2084 3496 c-9 -38 22 -131 52 -155 l26 -20 -24 -24 c-13 -13 -31
-26 -39 -29 -11 -4 -11 -9 5 -27 25 -28 29 -27 49 14 10 21 24 35 35 35 26 0
62 28 62 50 0 12 10 21 31 25 21 5 28 10 21 17 -6 6 -8 18 -5 27 3 10 2 12 -4
5 -6 -9 -66 -34 -79 -34 -2 0 -4 6 -4 13 0 8 -9 22 -21 33 -12 10 -29 35 -40
54 -14 27 -18 30 -19 15 -1 -19 -2 -19 -20 3 l-19 23 -7 -25z m196 -116 c0 -5
-2 -10 -4 -10 -3 0 -8 5 -11 10 -3 6 -1 10 4 10 6 0 11 -4 11 -10z"/>
<path d="M2527 3450 c-31 -25 -42 -80 -27 -140 26 -100 29 -92 -52 -152 -40
-31 -80 -64 -89 -74 -25 -30 -64 -426 -55 -562 4 -58 11 -111 17 -118 7 -9 -9
-41 -56 -112 -58 -89 -71 -103 -111 -118 -25 -9 -57 -26 -70 -37 -31 -24 -72
-18 -126 18 l-38 25 0 -47 c0 -65 8 -88 33 -102 21 -11 22 -19 23 -124 0 -86
5 -129 22 -184 21 -67 21 -75 7 -109 -14 -34 -14 -36 5 -41 11 -3 20 -11 20
-18 0 -15 22 -25 55 -25 27 0 38 30 24 67 -14 38 -12 136 4 131 19 -7 39 -76
27 -98 -16 -29 -12 -60 6 -60 14 0 16 -8 10 -46 l-6 -45 33 3 c25 2 31 7 29
21 -2 10 1 24 6 30 5 7 12 58 16 113 4 56 11 117 16 135 6 19 10 64 10 101 l0
68 30 0 c27 0 30 3 30 34 0 25 5 35 20 39 24 6 26 34 5 85 -20 46 -53 82 -76
82 -10 0 -21 5 -24 11 -9 13 97 174 124 188 18 10 20 5 30 -77 6 -48 18 -113
27 -146 10 -42 13 -82 9 -140 -5 -62 -2 -100 13 -162 10 -45 17 -95 14 -112
-2 -17 1 -54 8 -81 14 -58 0 -96 -49 -131 -47 -33 -31 -50 48 -50 36 0 77 3
90 7 27 7 27 -14 -1 328 -6 83 -11 191 -10 240 2 106 22 265 32 265 4 0 11
-17 14 -37 4 -21 21 -78 38 -128 30 -89 31 -92 33 -322 2 -248 7 -270 49 -257
38 11 46 32 39 109 -7 89 4 188 20 182 7 -2 20 0 30 5 12 6 18 5 21 -4 16 -64
43 -128 67 -158 22 -27 31 -54 41 -114 11 -73 11 -79 -7 -92 -18 -14 -18 -14
3 -14 14 0 27 11 38 32 15 28 17 30 27 13 7 -14 6 -21 -9 -32 -17 -12 -17 -13
3 -13 29 0 35 22 27 105 -8 88 9 110 25 33 12 -52 26 -78 43 -78 5 0 4 9 -2
19 -5 11 -10 32 -10 47 0 47 -23 104 -54 135 -39 38 -64 104 -77 201 -8 64 -7
84 6 115 14 33 14 38 0 45 -8 5 -15 16 -15 25 0 10 -6 13 -16 9 -9 -3 -22 -6
-30 -6 -8 0 -23 -9 -33 -19 -19 -19 -20 -19 -26 10 -6 29 -25 41 -25 17 0 -7
5 -57 12 -110 13 -106 3 -148 -34 -148 -10 0 -18 1 -18 3 0 1 5 18 11 37 15
46 21 335 9 382 -14 52 -2 146 21 158 10 6 25 7 34 3 17 -6 17 -30 0 -89 -5
-15 0 -23 20 -32 64 -30 95 -3 95 84 0 107 -30 366 -59 518 -28 147 -29 149
-67 182 -22 18 -64 43 -94 55 -30 13 -58 26 -61 31 -3 5 -2 40 3 79 10 80 -2
133 -32 149 -31 16 -85 11 -113 -10z m339 -1387 c-4 -4 -11 -1 -16 7 -16 25
-11 35 7 17 9 -9 13 -20 9 -24z"/>
</g>
</svg>
